<?xml version="1.0" encoding="utf-8"?>
<!-- Generator: Adobe Illustrator 16.0.4, SVG Export Plug-In . SVG Version: 6.00 Build 0)  -->
<!DOCTYPE svg PUBLIC "-//W3C//DTD SVG 1.1//EN" "http://www.w3.org/Graphics/SVG/1.1/DTD/svg11.dtd">
<svg version="1.1" xmlns="http://www.w3.org/2000/svg" xmlns:xlink="http://www.w3.org/1999/xlink" x="0px" y="0px"
	 width="144.514px" height="144.385px" viewBox="0 0 144.514 144.385" enable-background="new 0 0 144.514 144.385"
	 xml:space="preserve">
<g id="Layer_3">
	<g>
		<g>
			<path fill="#FFFFFF" d="M3.757,76.008c45.553,0,91.105,0,136.658,0c0.114,0,0.228,0,0.342,0c4.837,0,4.837-7.5,0-7.5
				c-45.553,0-91.105,0-136.658,0c-0.114,0-0.228,0-0.342,0C-1.08,68.508-1.08,76.008,3.757,76.008L3.757,76.008z"/>
			<path fill="#FFFFFF" d="M7.057,95.928c6.897-6.897,13.795-13.796,20.693-20.694c1.445-1.444,1.445-3.858,0-5.303
				c-7.113-7.114-14.228-14.229-21.342-21.343c-3.422-3.423-8.726,1.88-5.303,5.303c7.113,7.114,14.228,14.229,21.342,21.343
				c0-1.768,0-3.535,0-5.303C15.549,76.828,8.65,83.727,1.752,90.625C-1.67,94.048,3.633,99.351,7.057,95.928L7.057,95.928z"/>
			<path fill="#FFFFFF" d="M142.762,90.625c-6.898-6.898-13.797-13.797-20.695-20.694c0,1.768,0,3.535,0,5.303
				c7.114-7.114,14.229-14.229,21.342-21.343c3.423-3.423-1.881-8.726-5.303-5.303c-7.114,7.114-14.229,14.229-21.342,21.343
				c-1.445,1.444-1.445,3.858,0,5.303c6.898,6.898,13.796,13.797,20.693,20.694C140.881,99.351,146.184,94.048,142.762,90.625
				L142.762,90.625z"/>
		</g>
		<g>
			<path fill="#FFFFFF" d="M26.699,123.575c32.211-32.21,64.422-64.421,96.633-96.631c0.081-0.081,0.162-0.161,0.242-0.242
				c3.423-3.423-1.881-8.726-5.303-5.303C86.061,53.609,53.85,85.82,21.639,118.03c-0.081,0.081-0.162,0.161-0.242,0.242
				C17.974,121.695,23.277,126.998,26.699,123.575L26.699,123.575z"/>
			<path fill="#FFFFFF" d="M43.118,135.328c0-9.755,0-19.511,0-29.266c0-2.044-1.706-3.75-3.75-3.75c-10.061,0-20.121,0-30.182,0
				c-4.837,0-4.837,7.5,0,7.5c10.061,0,20.121,0,30.182,0c-1.25-1.25-2.5-2.5-3.75-3.75c0,9.755,0,19.511,0,29.266
				C35.618,140.165,43.118,140.165,43.118,135.328L43.118,135.328z"/>
			<path fill="#FFFFFF" d="M135.327,35.621c-9.755,0-19.511,0-29.266,0c1.25,1.25,2.5,2.5,3.75,3.75
				c-0.001-10.062-0.001-20.122-0.002-30.184c-0.001-4.837-7.501-4.837-7.5,0c0.001,10.062,0.001,20.122,0.002,30.184
				c0,2.044,1.706,3.75,3.75,3.75c9.755,0,19.511,0,29.266,0C140.164,43.121,140.164,35.621,135.327,35.621L135.327,35.621z"/>
		</g>
		<g>
			<path fill="#FFFFFF" d="M76.006,140.758c0-45.553,0-91.106,0.001-136.659c0-0.114,0-0.228,0-0.342c0-4.837-7.5-4.837-7.5,0
				c-0.001,45.553-0.001,91.106-0.001,136.659c0,0.114,0,0.228,0,0.342C68.506,145.595,76.006,145.595,76.006,140.758
				L76.006,140.758z"/>
			<path fill="#FFFFFF" d="M95.926,137.459c-6.897-6.898-13.795-13.796-20.693-20.693c-1.444-1.445-3.858-1.445-5.303,0
				c-7.114,7.113-14.229,14.228-21.342,21.342c-3.423,3.423,1.881,8.726,5.303,5.303c7.114-7.113,14.229-14.228,21.342-21.342
				c-1.768,0-3.535,0-5.303,0c6.897,6.898,13.795,13.796,20.693,20.693C94.045,146.185,99.349,140.882,95.926,137.459
				L95.926,137.459z"/>
			<path fill="#FFFFFF" d="M90.625,1.754C83.727,8.651,76.828,15.549,69.93,22.447c1.768,0,3.535,0,5.303,0
				C68.118,15.333,61.004,8.219,53.889,1.105c-3.423-3.423-8.727,1.881-5.303,5.303C55.7,13.522,62.814,20.637,69.93,27.75
				c1.445,1.445,3.857,1.445,5.303,0c6.898-6.897,13.797-13.795,20.695-20.693C99.352,3.635,94.048-1.669,90.625,1.754L90.625,1.754
				z"/>
		</g>
		<g>
			<path fill="#FFFFFF" d="M123.574,117.815C91.363,85.604,59.152,53.393,26.941,21.182c-0.08-0.08-0.161-0.161-0.242-0.241
				c-3.422-3.423-8.726,1.88-5.303,5.303c32.211,32.211,64.422,64.423,96.633,96.634c0.08,0.08,0.161,0.161,0.242,0.241
				C121.693,126.541,126.997,121.238,123.574,117.815L123.574,117.815z"/>
			<path fill="#FFFFFF" d="M135.327,101.396c-9.755,0-19.511,0-29.266,0c-2.044,0-3.75,1.706-3.75,3.75c0,10.061,0,20.121,0,30.182
				c0,4.837,7.5,4.837,7.5,0c0-10.061,0-20.121,0-30.182c-1.25,1.25-2.5,2.5-3.75,3.75c9.755,0,19.511,0,29.266,0
				C140.164,108.896,140.164,101.396,135.327,101.396L135.327,101.396z"/>
			<path fill="#FFFFFF" d="M35.62,9.188c-0.001,9.755-0.001,19.511-0.002,29.266c1.25-1.25,2.5-2.5,3.75-3.75
				c-10.061,0.001-20.121,0.001-30.182,0.002c-4.837,0-4.837,7.5,0,7.5c10.061-0.001,20.121-0.001,30.182-0.002
				c2.044,0,3.75-1.706,3.75-3.75c0.001-9.755,0.001-19.511,0.002-29.266C43.121,4.351,35.621,4.351,35.62,9.188L35.62,9.188z"/>
		</g>
	</g>
</g>
<g id="Layer_1">
</g>
<g id="Layer_4">
</g>
</svg>
