<?xml version="1.0" encoding="utf-8"?>
<!-- Generator: Adobe Illustrator 16.0.4, SVG Export Plug-In . SVG Version: 6.00 Build 0)  -->
<!DOCTYPE svg PUBLIC "-//W3C//DTD SVG 1.1//EN" "http://www.w3.org/Graphics/SVG/1.1/DTD/svg11.dtd">
<svg version="1.1" xmlns="http://www.w3.org/2000/svg" xmlns:xlink="http://www.w3.org/1999/xlink" x="0px" y="0px"
	 width="130.465px" height="159.543px" viewBox="0 0 130.465 159.543" enable-background="new 0 0 130.465 159.543"
	 xml:space="preserve">
<g id="Layer_3">
</g>
<g id="Layer_1">
	<g>
		<g>
			<path fill="#FFFFFF" d="M45.799,110.202v-5.979l13.594-15.791c1.328-1.584,1.891-2.708,1.891-4.395
				c0-2.708-1.584-4.548-4.395-4.548c-2.197,0-4.445,1.124-4.445,4.65h-6.645c0-6.644,4.855-10.63,11.09-10.63
				c6.439,0,11.037,4.037,11.037,10.578c0,3.526-1.379,5.417-3.883,8.33l-10.17,11.805h14.053v5.979H45.799z"/>
			<path fill="#FFFFFF" d="M93.379,105.041v5.161h-6.387v-5.161H72.121v-6.286L84.59,73.817h7.256L79.377,98.755h7.615v-6.796h6.387
				v6.796h3.322v6.286H93.379z"/>
		</g>
	</g>
	<path fill="none" stroke="#FFFFFF" stroke-width="7" stroke-miterlimit="10" d="M108.297,47.77
		C98.119,38.48,84.578,32.814,69.715,32.814c-31.619,0-57.25,25.633-57.25,57.25c0,25.639,16.85,47.338,40.082,54.631"/>
	
		<rect x="1.897" y="36.768" transform="matrix(0.6429 -0.766 0.766 0.6429 -29.3826 24.3661)" fill="#FFFFFF" width="19.083" height="13.85"/>
	<polygon fill="#FFFFFF" points="87.213,0 52.213,0 52.213,17.917 60.172,17.917 60.172,23.333 79.256,23.333 79.256,17.917 
		87.213,17.917 	"/>
	<polygon fill="#FFFFFF" points="86.554,129.847 62.177,147.019 89.236,159.543 	"/>
	<path fill="#FFFFFF" d="M69.715,150.814v-7c29.638,0,53.75-24.112,53.75-53.75s-24.112-53.75-53.75-53.75
		s-53.75,24.112-53.75,53.75c0,19.666,10.729,37.75,28.002,47.194l-3.357,6.143c-19.52-10.673-31.645-31.11-31.645-53.337
		c0-33.498,27.252-60.75,60.75-60.75s60.75,27.252,60.75,60.75S103.213,150.814,69.715,150.814z"/>
</g>
</svg>
