<?xml version="1.0" encoding="utf-8"?>
<!-- Generator: Adobe Illustrator 16.0.4, SVG Export Plug-In . SVG Version: 6.00 Build 0)  -->
<!DOCTYPE svg PUBLIC "-//W3C//DTD SVG 1.1//EN" "http://www.w3.org/Graphics/SVG/1.1/DTD/svg11.dtd">
<svg version="1.1" xmlns="http://www.w3.org/2000/svg" xmlns:xlink="http://www.w3.org/1999/xlink" x="0px" y="0px"
	 width="128.485px" height="150.721px" viewBox="0 0 128.485 150.721" enable-background="new 0 0 128.485 150.721"
	 xml:space="preserve">
<g id="Layer_3">
</g>
<g id="Layer_1">
	<g>
		
			<rect x="1.897" y="34.31" transform="matrix(0.6428 -0.766 0.766 0.6428 -27.5006 23.4894)" fill="#FFFFFF" width="19.082" height="13.85"/>
		<polygon fill="#FFFFFF" points="86.211,0 51.211,0 51.211,17.917 59.17,17.917 59.17,23.333 78.253,23.333 78.253,17.917 
			86.211,17.917 		"/>
		<path fill="#FFFFFF" d="M123.169,115.621l-6.375-2.893c3.113-6.859,4.691-14.188,4.691-21.783c0-29.1-23.675-52.773-52.774-52.773
			c-17.788,0-34.266,8.876-44.079,23.744l-5.842-3.855c11.112-16.837,29.774-26.889,49.921-26.889
			c32.96,0,59.774,26.814,59.774,59.773C128.485,99.545,126.696,107.847,123.169,115.621z"/>
		<path fill="#FFFFFF" d="M68.711,90.946l34.692,16.056c2.264-4.881,3.526-10.321,3.526-16.056
			c0-21.109-17.111-38.219-38.219-38.219c-13.482,0-25.334,6.98-32.138,17.525L68.711,90.946z"/>
		
			<rect x="10.958" y="77.675" transform="matrix(0.1735 -0.9848 0.9848 0.1735 -68.9573 80.1812)" fill="#FFFFFF" width="4.666" height="6.997"/>
		
			<rect x="10.96" y="97.22" transform="matrix(-0.174 -0.9848 0.9848 -0.174 -83.5787 131.3295)" fill="#FFFFFF" width="4.665" height="6.998"/>
		
			<rect x="17.645" y="115.584" transform="matrix(-0.5002 -0.8659 0.8659 -0.5002 -73.1483 195.9434)" fill="#FFFFFF" width="4.664" height="6.998"/>
		
			<rect x="30.207" y="130.555" transform="matrix(-0.7662 -0.6427 0.6427 -0.7662 -28.679 257.672)" fill="#FFFFFF" width="4.665" height="6.997"/>
		
			<rect x="47.134" y="140.327" transform="matrix(-0.9397 -0.3421 0.3421 -0.9397 46.7424 295.8947)" fill="#FFFFFF" width="4.664" height="6.996"/>
		<rect x="66.381" y="143.721" fill="#FFFFFF" width="4.664" height="6.996"/>
		
			<rect x="85.627" y="140.326" transform="matrix(-0.9398 0.3417 -0.3417 -0.9398 219.7666 248.9391)" fill="#FFFFFF" width="4.665" height="6.996"/>
		
			<rect x="102.551" y="130.554" transform="matrix(-0.7662 0.6425 -0.6425 -0.7662 271.3867 169.3767)" fill="#FFFFFF" width="4.666" height="6.997"/>
	</g>
</g>
<g id="Layer_4">
</g>
</svg>
