<?xml version="1.0" encoding="utf-8"?>
<!-- Generator: Adobe Illustrator 16.0.4, SVG Export Plug-In . SVG Version: 6.00 Build 0)  -->
<!DOCTYPE svg PUBLIC "-//W3C//DTD SVG 1.1//EN" "http://www.w3.org/Graphics/SVG/1.1/DTD/svg11.dtd">
<svg version="1.1" xmlns="http://www.w3.org/2000/svg" xmlns:xlink="http://www.w3.org/1999/xlink" x="0px" y="0px"
	 width="127.98px" height="150.955px" viewBox="0 0 127.98 150.955" enable-background="new 0 0 127.98 150.955"
	 xml:space="preserve">
<g id="Layer_3">
</g>
<g id="Layer_1">
	<g>
		
			<rect x="1.897" y="34.31" transform="matrix(0.6428 -0.766 0.766 0.6428 -27.5006 23.4894)" fill="#FFFFFF" width="19.082" height="13.85"/>
		<polygon fill="#FFFFFF" points="86.211,0 51.211,0 51.211,17.917 59.17,17.917 59.17,23.333 78.253,23.333 78.253,17.917 
			86.211,17.917 		"/>
		<path fill="none" stroke="#FFFFFF" stroke-width="7" stroke-miterlimit="10" d="M20.733,61.522
			c9.899-16.108,27.684-26.851,47.978-26.851c11.655,0,22.482,3.543,31.464,9.61"/>
		<path fill="#FFFFFF" d="M91.347,60.147c-6.336-4.665-14.164-7.421-22.636-7.421c-14.075,0-26.374,7.608-33.006,18.938
			l33.006,19.281L91.347,60.147z"/>
		
			<rect x="10.958" y="77.911" transform="matrix(0.1735 -0.9848 0.9848 0.1735 -69.1891 80.3757)" fill="#FFFFFF" width="4.666" height="6.997"/>
		
			<rect x="10.959" y="97.454" transform="matrix(-0.1739 -0.9848 0.9848 -0.1739 -83.8106 131.6012)" fill="#FFFFFF" width="4.666" height="6.998"/>
		
			<rect x="17.645" y="115.82" transform="matrix(-0.5002 -0.8659 0.8659 -0.5002 -73.3521 196.2964)" fill="#FFFFFF" width="4.664" height="6.998"/>
		
			<rect x="30.207" y="130.791" transform="matrix(-0.7662 -0.6427 0.6427 -0.7662 -28.8303 258.0876)" fill="#FFFFFF" width="4.665" height="6.997"/>
		
			<rect x="47.134" y="140.563" transform="matrix(-0.9397 -0.3421 0.3421 -0.9397 46.6618 296.3512)" fill="#FFFFFF" width="4.664" height="6.996"/>
		<rect x="66.381" y="143.956" fill="#FFFFFF" width="4.664" height="6.996"/>
		
			<rect x="85.627" y="140.562" transform="matrix(-0.9398 0.3417 -0.3417 -0.9398 219.847 249.3957)" fill="#FFFFFF" width="4.665" height="6.996"/>
		
			<rect x="102.551" y="130.789" transform="matrix(-0.7662 0.6425 -0.6425 -0.7662 271.5377 169.7915)" fill="#FFFFFF" width="4.666" height="6.996"/>
		
			<rect x="115.113" y="115.818" transform="matrix(-0.5001 0.8659 -0.8659 -0.5001 279.5075 77.2903)" fill="#FFFFFF" width="4.667" height="6.997"/>
		
			<rect x="121.797" y="97.453" transform="matrix(-0.1737 0.9848 -0.9848 -0.1737 245.1068 -3.7578)" fill="#FFFFFF" width="4.667" height="6.997"/>
		
			<rect x="121.796" y="77.909" transform="matrix(0.1737 0.9848 -0.9848 0.1737 182.7447 -54.9725)" fill="#FFFFFF" width="4.668" height="6.998"/>
		
			<rect x="115.111" y="59.544" transform="matrix(0.5001 0.866 -0.866 0.5001 113.3108 -70.1885)" fill="#FFFFFF" width="4.667" height="6.998"/>
	</g>
</g>
<g id="Layer_4">
</g>
</svg>
