<?xml version="1.0" encoding="utf-8"?>
<!-- Generator: Adobe Illustrator 16.0.4, SVG Export Plug-In . SVG Version: 6.00 Build 0)  -->
<!DOCTYPE svg PUBLIC "-//W3C//DTD SVG 1.1//EN" "http://www.w3.org/Graphics/SVG/1.1/DTD/svg11.dtd">
<svg version="1.1" xmlns="http://www.w3.org/2000/svg" xmlns:xlink="http://www.w3.org/1999/xlink" x="0px" y="0px"
	 width="243.963px" height="186.984px" viewBox="0 0 243.963 186.984" enable-background="new 0 0 243.963 186.984"
	 xml:space="preserve">
<g id="Layer_3">
</g>
<g id="Layer_1">
	<g>
		<path fill="#FFFFFF" d="M47.107,47.464c-2.633-2.633-3.949-5.83-3.949-9.591c0-3.762,1.316-6.958,3.949-9.591
			s5.83-3.949,9.592-3.949c3.761,0,6.958,1.316,9.59,3.949c2.633,2.633,3.949,5.829,3.949,9.591c0,3.761-1.316,6.958-3.949,9.591
			c-2.632,2.633-5.829,3.949-9.59,3.949C52.938,51.413,49.74,50.097,47.107,47.464z"/>
		<path fill="#FFFFFF" d="M29.76,112.202c0.846,0.658,1.834,0.988,2.962,0.988s2.115-0.33,2.962-0.988
			c0.846-0.658,1.27-1.739,1.27-3.243V73.979v-1.692c0-0.564,0.281-0.94,0.846-1.128c0.564-0.188,1.035-0.282,1.41-0.282
			c0.377,0,0.847,0.094,1.411,0.282c0.563,0.188,0.847,0.563,0.847,1.128v84.343c0,1.693,0.61,3.104,1.833,4.231
			c1.223,1.129,2.68,1.693,4.372,1.693c1.693,0,3.15-0.565,4.373-1.693c1.222-1.127,1.833-2.538,1.833-4.231v-33.003v-18.619
			c0-0.94,0.376-1.551,1.128-1.834c0.753-0.283,1.316-0.423,1.693-0.423c0.375,0,0.893,0.141,1.551,0.423
			c0.658,0.281,0.988,0.894,0.988,1.834v18.619v33.003c0,1.693,0.61,3.104,1.833,4.231c1.222,1.128,2.68,1.693,4.372,1.693
			c1.881,0,3.385-0.565,4.514-1.693c1.128-1.127,1.691-2.538,1.691-4.231l0.283-84.343c0-0.564,0.281-0.94,0.846-1.128
			c0.564-0.188,1.035-0.282,1.41-0.282c0.377,0,0.847,0.094,1.411,0.282c0.563,0.188,0.847,0.563,0.847,1.128v1.692v34.979
			c0,1.504,0.423,2.585,1.269,3.243c0.847,0.658,1.786,0.988,2.821,0.988c1.034,0,1.975-0.33,2.82-0.988
			c0.847-0.658,1.27-1.739,1.27-3.243V70.03c0-3.761-1.27-7.146-3.809-10.154c-2.538-3.01-5.971-4.514-10.295-4.514H55.288h-0.282
			H40.902c-4.326,0-7.476,1.504-9.45,4.514c-1.975,3.008-2.962,6.394-2.962,10.154v38.929
			C28.49,110.463,28.913,111.544,29.76,112.202z"/>
		<path fill="#FFFFFF" d="M176.021,2.472c-1.692-1.599-3.761-2.397-6.206-2.397H8.744c-2.444,0-4.513,0.799-6.205,2.397
			C0.846,4.07,0,6.092,0,8.536v168.122c0,2.444,0.846,4.467,2.539,6.064c1.692,1.599,3.761,2.398,6.205,2.398h161.07
			c2.445,0,4.514-0.8,6.206-2.398c1.692-1.598,2.538-3.62,2.538-6.064V8.536C178.559,6.092,177.713,4.07,176.021,2.472z
			 M164.455,171.017H14.104V14.179h150.351V171.017z"/>
		<path fill="#FFFFFF" d="M121.578,51.413c3.762,0,6.959-1.316,9.592-3.949s3.947-5.83,3.947-9.591c0-3.762-1.315-6.958-3.947-9.591
			c-2.633-2.633-5.83-3.949-9.592-3.949c-3.761,0-6.957,1.316-9.59,3.949s-3.949,5.829-3.949,9.591c0,3.761,1.316,6.958,3.949,9.591
			S117.817,51.413,121.578,51.413z"/>
		<path fill="#FFFFFF" d="M94.639,112.202c0.847,0.658,1.834,0.988,2.962,0.988s2.116-0.33,2.962-0.988
			c0.847-0.658,1.27-1.739,1.27-3.243V73.979v-1.692c0-0.564,0.282-0.94,0.847-1.128c0.563-0.188,1.034-0.282,1.41-0.282
			s0.847,0.094,1.41,0.282c0.564,0.188,0.847,0.563,0.847,1.128v84.343c0,1.693,0.611,3.104,1.833,4.231
			c1.223,1.128,2.681,1.693,4.373,1.693s3.149-0.565,4.372-1.693c1.223-1.127,1.834-2.538,1.834-4.231v-33.003v-18.619
			c0-0.94,0.375-1.551,1.128-1.834c0.752-0.282,1.316-0.423,1.692-0.423s0.94,0.141,1.691,0.423
			c0.753,0.281,1.129,0.894,1.129,1.834v18.619v33.003c0,1.693,0.564,3.104,1.691,4.231c1.129,1.128,2.633,1.693,4.514,1.693
			c1.693,0,3.149-0.565,4.372-1.693c1.223-1.127,1.834-2.538,1.834-4.231V72.287c0-0.564,0.28-0.94,0.847-1.128
			c0.564-0.188,1.033-0.282,1.41-0.282s0.846,0.094,1.412,0.282c0.564,0.188,0.846,0.563,0.846,1.128v1.692v34.979
			c0,1.504,0.424,2.585,1.27,3.243s1.834,0.988,2.962,0.988s2.115-0.33,2.962-0.988c0.846-0.658,1.27-1.739,1.27-3.243V70.03
			c0-3.761-1.315-7.146-3.948-10.154c-2.634-3.01-6.113-4.514-10.438-4.514H120.45h-0.282h-0.282h-13.822
			c-4.325,0-7.522,1.504-9.591,4.514c-2.068,3.008-3.104,6.394-3.104,10.154v38.929C93.369,110.463,93.793,111.544,94.639,112.202z"
			/>
		<path fill="#FFFFFF" d="M241.442,152.175c-4.88,0-12.644,0-12.644,0s0-2.106,0-5.339c0-9.972,0-29.393,0-36.827
			c0,0,0.063-1.74-2.193-1.74c-2.251,0-16.092,0-19.244,0c-3.16,0-2.606,2.079-2.606,2.079c0,7.651,0,26.418,0,36.753
			c0,3.605,0,5.954,0,5.954s-9.681,0-13.688,0c-3.987,0-0.313,3.475-0.313,3.475l24.283,29.346c0,0,1.986,2.331,4.076,0.235
			c2.871-2.879,23.523-30.296,23.523-30.296S246.306,152.175,241.442,152.175z"/>
		<path fill="#FFFFFF" d="M191.732,37.526c4.88,0,12.643,0,12.643,0s0,2.106,0,5.34c0,9.971,0,29.392,0,36.826
			c0,0-0.063,1.74,2.194,1.74c2.251,0,16.091,0,19.243,0c3.16,0,2.607-2.079,2.607-2.079c0-7.65,0-26.417,0-36.753
			c0-3.605,0-5.954,0-5.954s9.68,0,13.687,0c3.987,0,0.313-3.474,0.313-3.474L218.139,3.827c0,0-1.987-2.332-4.078-0.236
			c-2.871,2.88-23.523,30.297-23.523,30.297S186.869,37.526,191.732,37.526z"/>
	</g>
</g>
</svg>
