<?xml version="1.0" encoding="utf-8"?>
<!-- Generator: Adobe Illustrator 16.0.4, SVG Export Plug-In . SVG Version: 6.00 Build 0)  -->
<!DOCTYPE svg PUBLIC "-//W3C//DTD SVG 1.1//EN" "http://www.w3.org/Graphics/SVG/1.1/DTD/svg11.dtd">
<svg version="1.1" xmlns="http://www.w3.org/2000/svg" xmlns:xlink="http://www.w3.org/1999/xlink" x="0px" y="0px"
	 width="307.326px" height="334.719px" viewBox="0 0 307.326 334.719" enable-background="new 0 0 307.326 334.719"
	 xml:space="preserve">
<g id="Layer_3">
</g>
<g id="Layer_1">
	<circle fill-rule="evenodd" clip-rule="evenodd" fill="#872269" cx="153.663" cy="181.056" r="153.663"/>
	<path fill="#6D6E71" d="M159.557,61.701L146.1,42.006l0.9-0.581c-26.108,1.226-50.338,9.612-70.777,23.24L99.914,98.98
		L159.557,61.701z"/>
	<path fill="#6D6E71" d="M49.293,167.117c0.294-0.514,0.586-1.006,0.869-1.473c9.248-15.179-1.384-30.688-1.384-30.688
		l-16.307-23.618c-9.401,16.306-15.599,34.69-17.749,54.293C14.861,165.613,30.182,163.827,49.293,167.117z"/>
	<path fill="#6D6E71" d="M13.911,177.966c-0.022,1.028-0.038,2.056-0.038,3.09c0,19.752,4.104,38.546,11.496,55.581
		c2.298-16.963,10.865-41.942,18.513-58.758C34.703,176.671,24.561,176.126,13.911,177.966z"/>
	<path fill="#6D6E71" d="M58.488,200.764c-1.915,3.085-3.535,6.486-4.547,10.412c-3.518,13.647-8.006,43.924-9.828,56.713
		c25.607,32.263,65.16,52.958,109.55,52.958c0.81,0,1.614-0.017,2.421-0.031l26.797-62.03L58.488,200.764z"/>
	<path fill="#6D6E71" d="M186.166,45.071c-10.433-2.484-21.312-3.807-32.503-3.807c-1.601,0-3.192,0.036-4.78,0.09l12.939,18.932
		L186.166,45.071z"/>
	<path fill="#6D6E71" d="M70.507,129.085c1.483,2.149,2.69,4.242,3.677,6.295c0,0,0.008,0.017,0.008,0.021
		c0.244,0.504,0.473,1.007,0.689,1.507c2.646,5.748,12.279,26.092,17.969,30.155c5.933,4.238,5.035,9.446,44.752,14.217
		c16.373,1.809,29.48,3.004,32.555,3.093l-4.98,11.857c0,0-64.371-9.365-92.699-13.706c-3.328,5.158-8.104,9.824-12.115,15.448
		l176.556,82.354l-4.005-80.063l3.318-0.142l4.08,81.789l6.75,3.148c28.479-25.591,46.394-62.704,46.394-104.004
		c0-61.885-40.216-114.369-95.937-132.765L69.826,128.099L70.507,129.085z"/>
	<path fill="#6D6E71" d="M64.863,120.911l27.625-17.291L69.101,69.744c-9.532,7.251-18.104,15.691-25.493,25.109l2-1.833
		L64.863,120.911z"/>
	<path fill="#6D6E71" d="M185.893,260.191l-26.144,60.515c29.095-1.245,55.888-11.377,77.724-27.762l-0.392-8.876L185.893,260.191z"
		/>
	<path fill="#6D6E71" d="M64.129,170.207c0,0,4.77-21.698-2.346-33.97c0,0,6.403,18.142-1.955,32.903L64.129,170.207z"/>
	<path fill="#6D6E71" d="M53.311,187.92c0.027-0.069,0.062-0.147,0.114-0.284c1.067-2.667,6.403-7.292,6.403-7.292l-3.202-0.711
		C56.626,179.633,53.733,186.867,53.311,187.92z"/>
	<path opacity="0.2" fill="#6D6E71" d="M240.686,290.451c1.23-0.98,2.445-1.981,3.643-3.004l-3.854-1.798L240.686,290.451z"/>
	<path fill="#6D6E71" d="M77.227,165.049c-0.25,2.215-0.518,4.463-0.74,6.764c-0.038,0.392-0.091,0.778-0.152,1.159
		c2.459,0.439,5.066,0.875,7.765,1.306C81.506,171.916,79.119,168.893,77.227,165.049z"/>
	<path fill="#FFFFFF" d="M240.311,281.912l-4.08-81.789l-3.318,0.142l4.005,80.063L60.361,197.974
		c4.012-5.625,8.787-10.291,12.115-15.448c28.328,4.341,92.699,13.706,92.699,13.706l4.98-11.857
		c-3.074-0.089-16.182-1.284-32.555-3.093c-39.717-4.771-38.819-9.979-44.752-14.217c-5.689-4.062-15.323-24.407-17.969-30.155
		c-0.217-0.5-0.445-1.003-0.689-1.507c0-0.004-0.008-0.021-0.008-0.021c-0.986-2.054-2.193-4.146-3.677-6.295l-0.681-0.987
		l127.691-79.808c-3.719-1.227-7.504-2.303-11.352-3.22l-24.344,15.215l-12.939-18.932c-0.627,0.021-1.258,0.042-1.883,0.071
		l-0.9,0.581l13.457,19.694L99.914,98.98L76.223,64.666c-2.432,1.62-4.805,3.314-7.122,5.079l23.388,33.876l-27.625,17.291
		L45.607,93.021l-2,1.833c-4.086,5.21-7.81,10.717-11.136,16.484l16.307,23.618c0,0,10.632,15.51,1.384,30.688
		c-0.283,0.467-0.575,0.959-0.869,1.473c-19.111-3.29-34.432-1.503-34.57-1.486c-0.447,4.062-0.723,8.175-0.812,12.335
		c10.649-1.84,20.792-1.295,29.971-0.086c-7.647,16.815-16.215,41.795-18.513,58.758c4.885,11.266,11.21,21.759,18.744,31.252
		c1.822-12.789,6.311-43.065,9.828-56.713c1.012-3.926,2.632-7.327,4.547-10.412l124.393,58.021l-26.797,62.03
		c1.225-0.021,2.447-0.058,3.665-0.11l26.144-60.515l51.188,23.877l0.392,8.876c1.084-0.814,2.154-1.648,3.213-2.493l-0.211-4.802
		l3.854,1.798c0.92-0.783,1.832-1.581,2.732-2.387L240.311,281.912z M76.486,171.813c0.223-2.301,0.49-4.549,0.74-6.764
		c1.893,3.843,4.279,6.867,6.872,9.229c-2.698-0.431-5.306-0.867-7.765-1.306C76.396,172.591,76.448,172.205,76.486,171.813z
		 M53.425,187.636c-0.053,0.136-0.087,0.214-0.114,0.284c0.423-1.053,3.315-8.287,3.315-8.287l3.202,0.711
		C59.828,180.345,54.492,184.969,53.425,187.636z M61.783,136.237c7.115,12.272,2.346,33.97,2.346,33.97l-4.301-1.067
		C68.187,154.378,61.783,136.237,61.783,136.237z"/>
	<path fill-rule="evenodd" clip-rule="evenodd" fill="#872269" d="M255.645,151.771c0-9.167-7.434-16.601-16.602-16.601
		c-9.165,0-16.599,7.433-16.599,16.601c0,5.688,2.868,10.708,7.233,13.697l-0.334,15.99v-0.623c0,1.117-0.905,2.023-2.022,2.023
		h-51.356v0.078c-4.414,0.522-7.963,3.849-8.811,8.15l-0.02-0.005l-15.553,44.004l1.108-3.162c-0.495,1.095-1.589,1.856-2.87,1.856
		c-0.601,0-1.159-0.178-1.637-0.47l-0.025,0.008l-26.67-13.758c-0.568-8.654-7.747-15.501-16.545-15.501
		c-9.165,0-16.599,7.431-16.599,16.599c0,9.167,7.434,16.599,16.599,16.599c3.135,0,6.055-0.884,8.557-2.394l37.818,19.512
		l0.014-0.028c1.281,0.581,2.703,0.914,4.204,0.914c4.068,0,7.573-2.387,9.212-5.83l0.064,0.022l16.656-47.122
		c0.012-0.003,0.02-0.012,0.031-0.017c0.319-1.284,1.47-2.24,2.854-2.24c0.161,0,0.316,0.022,0.47,0.048h51.407l0,0
		c5.642,0,10.215-4.575,10.215-10.216c0-0.044-0.008-0.089-0.008-0.136l0.489-23.39
		C252.115,163.574,255.645,158.085,255.645,151.771z M104.943,228.128c-4.124,0-7.47-3.346-7.47-7.47c0-4.127,3.346-7.47,7.47-7.47
		c4.127,0,7.47,3.343,7.47,7.47C112.413,224.783,109.07,228.128,104.943,228.128z M239.043,144.302c4.127,0,7.47,3.343,7.47,7.47
		c0,4.124-3.343,7.47-7.47,7.47c-4.124,0-7.47-3.346-7.47-7.47C231.573,147.645,234.919,144.302,239.043,144.302z"/>
	<g>
		<path fill-rule="evenodd" clip-rule="evenodd" fill="#872269" d="M294.535,55.615c0-28.753-23.307-52.058-52.055-52.058
			c-28.751,0-52.055,23.304-52.055,52.058c0,0-4.857,11.378,17.907,47.424s34.147,49.325,34.147,49.325s11.383-13.28,34.147-49.325
			S294.535,55.615,294.535,55.615z M242.48,79.8c-13.358,0-24.188-10.83-24.188-24.188s10.829-24.188,24.188-24.188
			s24.188,10.829,24.188,24.188S255.839,79.8,242.48,79.8z"/>
		<path fill="#FFFFFF" d="M242.48,157.83l-2.7-3.151c-0.472-0.55-11.812-13.889-34.455-49.741
			c-9.66-15.296-15.701-28.202-17.955-38.358c-1.407-6.341-0.938-9.905-0.499-11.523C187.174,24.647,212.003,0,242.48,0
			c30.488,0,55.325,24.664,55.609,55.088c0.913,3.563,2.11,17.288-18.454,49.85c-22.643,35.852-33.983,49.19-34.455,49.741
			L242.48,157.83z M193.735,56.946c-0.263,1.139-2.22,12.802,17.605,44.193c16.109,25.507,26.544,39.616,31.14,45.534
			c4.596-5.918,15.03-20.027,31.14-45.534c19.871-31.464,17.859-43.108,17.604-44.201l-0.392-0.721l0.146-0.602
			c0-26.743-21.757-48.5-48.498-48.5s-48.498,21.757-48.498,48.5v0.904L193.735,56.946z M242.48,83.357
			c-15.299,0-27.744-12.446-27.744-27.745c0-15.298,12.445-27.745,27.744-27.745s27.744,12.446,27.744,27.745
			C270.225,70.911,257.779,83.357,242.48,83.357z M242.48,34.981c-11.376,0-20.631,9.255-20.631,20.63
			c0,11.376,9.255,20.631,20.631,20.631s20.631-9.255,20.631-20.631C263.111,44.236,253.856,34.981,242.48,34.981z"/>
	</g>
</g>
</svg>
