<?xml version="1.0" encoding="utf-8"?>
<!-- Generator: Adobe Illustrator 16.0.4, SVG Export Plug-In . SVG Version: 6.00 Build 0)  -->
<!DOCTYPE svg PUBLIC "-//W3C//DTD SVG 1.1//EN" "http://www.w3.org/Graphics/SVG/1.1/DTD/svg11.dtd">
<svg version="1.1" xmlns="http://www.w3.org/2000/svg" xmlns:xlink="http://www.w3.org/1999/xlink" x="0px" y="0px" width="46.46px"
	 height="46.46px" viewBox="0 0 46.46 46.46" enable-background="new 0 0 46.46 46.46" xml:space="preserve">
<g id="Layer_3">
</g>
<g id="Layer_1">
</g>
<g id="Layer_4">
	<path fill="#FFFFFF" d="M39.956,5.933c1.166,0.57,2.182,1.385,2.926,2.381c1.566,2.102,2.007,4.964,1.309,8.508
		c-0.706,3.584-2.287,6.611-4.591,8.803c-0.42,0.441-0.871,0.851-1.352,1.229c-2.466,1.942-5.581,2.969-9.007,2.969h-0.549H18.35
		l-2.929,13.734H9.412l0.458-2.1h2.092l2.93-13.734h8.542c8.179,0,15.016-5.041,16.845-13.609C42.353,4.411,35.396,0,29.416,0H9.031
		L0,41.456h6.898L5.808,46.46H17.77l2.93-13.734h8.542c8.179,0,15.016-5.039,16.845-13.609C47.616,11.962,44.235,7.688,39.956,5.933
		z M19.163,8.443h5.857c2.932,0,4.882,2.521,4.028,5.669c-0.731,3.15-3.782,5.671-6.835,5.671h-5.613L19.163,8.443z"/>
</g>
</svg>
