<?xml version="1.0" encoding="utf-8"?>
<!-- Generator: Adobe Illustrator 16.0.4, SVG Export Plug-In . SVG Version: 6.00 Build 0)  -->
<!DOCTYPE svg PUBLIC "-//W3C//DTD SVG 1.1//EN" "http://www.w3.org/Graphics/SVG/1.1/DTD/svg11.dtd">
<svg version="1.1" xmlns="http://www.w3.org/2000/svg" xmlns:xlink="http://www.w3.org/1999/xlink" x="0px" y="0px"
	 width="114.109px" height="122.11px" viewBox="0 0 114.109 122.11" enable-background="new 0 0 114.109 122.11"
	 xml:space="preserve">
<g id="Layer_3">
	<path fill="#FFFFFF" d="M110.359,114.61c-35.536,0-71.073,0-106.609,0c1.25,1.25,2.5,2.5,3.75,3.75c0-23.812,0-47.626,0-71.438
		c-1.25,1.25-2.5,2.5-3.75,3.75c35.536,0,71.073,0,106.609,0c-1.25-1.25-2.5-2.5-3.75-3.75c0,23.812,0,47.626,0,71.438
		c0,4.837,7.5,4.837,7.5,0c0-23.812,0-47.626,0-71.438c0-2.044-1.706-3.75-3.75-3.75c-35.536,0-71.073,0-106.609,0
		c-2.044,0-3.75,1.706-3.75,3.75c0,23.812,0,47.626,0,71.438c0,2.044,1.706,3.75,3.75,3.75c35.536,0,71.073,0,106.609,0
		C115.196,122.11,115.196,114.61,110.359,114.61z"/>
	<path fill="#FFFFFF" d="M83.911,26.861C83.281,5.061,57.377-8.604,39.952,6.18c-12.217,10.364-9.754,26.415-9.754,40.742
		c0,2.044,1.705,3.75,3.75,3.75c15.404,0,30.809,0,46.213,0c2.045,0,3.75-1.706,3.75-3.75
		C83.911,40.235,83.911,33.548,83.911,26.861c0-4.837-7.5-4.837-7.5,0c0,6.687,0,13.374,0,20.061c1.25-1.25,2.5-2.5,3.75-3.75
		c-15.404,0-30.809,0-46.213,0c1.25,1.25,2.5,2.5,3.75,3.75c0-4.146,0-8.291,0-12.436c0-5.395-0.467-10.847,1.837-15.895
		c3.784-8.294,13.093-12.396,21.821-10.61c8.925,1.825,14.801,10.071,15.055,18.88C76.551,31.687,84.051,31.7,83.911,26.861z"/>
	<g>
		<path fill="#FFFFFF" d="M59.743,102.604v6.474h-5.838v-6.242c-5.549-0.173-9.884-1.618-13.641-5.434l5.201-5.201
			c2.428,2.428,5.723,3.352,9.19,3.468V85.207l-1.85-0.231c-3.468-0.462-6.242-1.733-7.977-3.468
			c-1.965-1.965-2.947-4.566-2.947-8.034c0-6.647,4.508-11.561,12.022-12.369v-5.202h5.838v5.145
			c4.682,0.289,8.266,1.733,11.387,4.739l-5.087,5.028c-1.907-1.85-4.739-2.601-7.109-2.774v10.058l2.196,0.347
			c3.757,0.578,6.127,1.618,7.861,3.237c2.196,2.08,3.179,5.028,3.179,8.67C72.17,97.402,66.968,101.738,59.743,102.604z
			 M54.656,68.098c-3.353,0.463-5.028,2.544-5.028,5.087c0,1.04,0.347,2.139,1.214,2.948c0.925,0.866,2.196,1.387,3.814,1.618
			V68.098z M63.037,87.114c-1.155-1.098-2.601-1.271-4.104-1.503v9.941c3.468-0.404,5.376-2.138,5.376-4.971
			C64.31,89.138,63.904,87.924,63.037,87.114z"/>
	</g>
</g>
<g id="Layer_1">
</g>
<g id="Layer_4">
</g>
</svg>
