<?xml version="1.0" encoding="utf-8"?>
<!-- Generator: Adobe Illustrator 16.0.4, SVG Export Plug-In . SVG Version: 6.00 Build 0)  -->
<!DOCTYPE svg PUBLIC "-//W3C//DTD SVG 1.1//EN" "http://www.w3.org/Graphics/SVG/1.1/DTD/svg11.dtd">
<svg version="1.1" xmlns="http://www.w3.org/2000/svg" xmlns:xlink="http://www.w3.org/1999/xlink" x="0px" y="0px"
	 width="240.762px" height="186.388px" viewBox="0 0 240.762 186.388" enable-background="new 0 0 240.762 186.388"
	 xml:space="preserve">
<g id="Layer_3">
</g>
<g id="Layer_1">
	<path fill="#FFFFFF" d="M233.2,0h-45.325c-4.171,0-7.548,3.38-7.548,7.552V38.69h-37.77c-4.17,0-7.551,3.38-7.551,7.552v36.287
		h-33.986c-4.177,0-7.558,3.38-7.558,7.552v39.653H56.645c-4.172,0-7.554,3.382-7.554,7.558v33.982H7.554
		C3.38,171.274,0,174.66,0,178.836c0,4.171,3.386,7.552,7.554,7.552h49.094c4.176,0,7.557-3.381,7.557-7.552v-33.987h36.819
		c4.171,0,7.552-3.385,7.552-7.557V97.633h33.987c4.172,0,7.556-3.377,7.556-7.552V53.8h37.762c4.182,0,7.561-3.381,7.561-7.558
		V15.106h37.766c4.172,0,7.556-3.381,7.556-7.555C240.758,3.38,237.374,0,233.2,0z"/>
</g>
</svg>
