<?xml version="1.0" encoding="utf-8"?>
<!-- Generator: Adobe Illustrator 16.0.4, SVG Export Plug-In . SVG Version: 6.00 Build 0)  -->
<!DOCTYPE svg PUBLIC "-//W3C//DTD SVG 1.1//EN" "http://www.w3.org/Graphics/SVG/1.1/DTD/svg11.dtd">
<svg version="1.1" xmlns="http://www.w3.org/2000/svg" xmlns:xlink="http://www.w3.org/1999/xlink" x="0px" y="0px"
	 width="187.085px" height="145.62px" viewBox="0 0 187.085 145.62" enable-background="new 0 0 187.085 145.62"
	 xml:space="preserve">
<g id="Layer_3">
	<g>
		<path fill="#FFFFFF" d="M182.174,69.4c-33.5,10.515-66.999,21.03-100.499,31.545c0.964,0.126,1.927,0.252,2.89,0.378
			C59.342,88.476,34.12,75.627,8.897,62.778c-4.3-2.189-8.096,4.28-3.785,6.477c22.13,11.272,44.259,22.545,66.389,33.818
			c3.052,1.555,6.104,3.109,9.155,4.664c2.295,1.169,4.719-0.096,6.975-0.804c12.131-3.808,24.26-7.614,36.391-11.422
			c20.049-6.293,40.098-12.586,60.146-18.879C188.766,75.189,186.801,67.948,182.174,69.4L182.174,69.4z"/>
		<path fill="#FFFFFF" d="M180.482,88.104c-33.5,10.516-66.999,21.03-100.499,31.546c0.964,0.126,1.927,0.252,2.89,0.378
			C57.65,107.179,32.429,94.33,7.206,81.481c-4.3-2.19-8.096,4.28-3.785,6.477c22.13,11.272,44.259,22.546,66.389,33.819
			c3.052,1.555,6.104,3.109,9.155,4.664c2.295,1.169,4.719-0.096,6.975-0.804c12.131-3.808,24.26-7.615,36.391-11.422
			c20.049-6.294,40.098-12.587,60.146-18.88C187.074,93.893,185.109,86.651,180.482,88.104L180.482,88.104z"/>
		<path fill="#FFFFFF" d="M182.174,106.807c-33.5,10.516-66.999,21.03-100.499,31.546c0.964,0.126,1.927,0.252,2.89,0.378
			c-25.223-12.849-50.444-25.697-75.667-38.546c-4.3-2.19-8.096,4.28-3.785,6.477c22.13,11.272,44.259,22.546,66.389,33.819
			c3.052,1.555,6.104,3.109,9.155,4.664c2.295,1.169,4.719-0.096,6.975-0.804c12.131-3.808,24.26-7.615,36.391-11.422
			c20.049-6.294,40.098-12.587,60.146-18.88C188.766,112.596,186.801,105.354,182.174,106.807L182.174,106.807z"/>
		<path fill="#FFFFFF" d="M182.174,50.696c-33.5,10.516-66.999,21.031-100.499,31.546c0.964,0.126,1.927,0.252,2.89,0.378
			c-22.129-11.272-44.26-22.546-66.389-33.819c-3.052-1.555-6.104-3.109-9.155-4.664c-0.411-0.209,1.81,2.193,0.851,0.734
			c-0.532-0.81-0.977-1.673-1.396-2.545c-1.34-2.786-1.699-6.276,0.371-8.784c3.965-4.797,14.241-6.11,19.979-7.684
			c8.535-2.341,17.113-4.529,25.695-6.695c14.621-3.689,29.274-7.253,43.941-10.754c1.395-0.333,2.79-0.665,4.186-0.996
			c1.248-0.296-2.871-0.606-0.694,0.238c4.004,1.554,8.007,3.107,12.011,4.661c22.817,8.854,45.635,17.71,68.452,26.565
			c0-2.411,0-4.821,0-7.232c-33.167,10.062-66.333,20.125-99.5,30.187c-4.614,1.4-2.646,8.64,1.994,7.232
			c33.167-10.062,66.333-20.124,99.5-30.187c3.772-1.145,3.356-5.93,0-7.232c-23.276-9.033-46.552-18.066-69.827-27.099
			c-3.672-1.425-7.342-2.85-11.013-4.274c-2.103-0.815-5.026,0.409-7.102,0.904c-15.403,3.675-30.789,7.428-46.142,11.31
			c-8.438,2.134-16.867,4.311-25.258,6.625c-6.512,1.795-14.73,3.227-19.98,7.697c-7.426,6.323-6.75,20.291,2.207,24.854
			c23.537,11.99,47.074,23.98,70.61,35.971c1.768,0.9,3.902,2.426,5.951,1.782c2.331-0.731,4.663-1.463,6.995-2.195
			c11.367-3.568,22.735-7.137,34.103-10.704c19.737-6.196,39.476-12.392,59.214-18.587
			C188.766,56.485,186.801,49.244,182.174,50.696L182.174,50.696z"/>
		<path fill="none" stroke="#FFFFFF" stroke-miterlimit="10" d="M168.908,41.809"/>
	</g>
</g>
<g id="Layer_1">
</g>
<g id="Layer_4">
</g>
</svg>
