<?xml version="1.0" encoding="utf-8"?>
<!-- Generator: Adobe Illustrator 16.0.4, SVG Export Plug-In . SVG Version: 6.00 Build 0)  -->
<!DOCTYPE svg PUBLIC "-//W3C//DTD SVG 1.1//EN" "http://www.w3.org/Graphics/SVG/1.1/DTD/svg11.dtd">
<svg version="1.1" xmlns="http://www.w3.org/2000/svg" xmlns:xlink="http://www.w3.org/1999/xlink" x="0px" y="0px"
	 width="170.868px" height="117.04px" viewBox="0 0 170.868 117.04" enable-background="new 0 0 170.868 117.04"
	 xml:space="preserve">
<g id="Layer_3">
	<g>
		<circle fill-rule="evenodd" clip-rule="evenodd" fill="#FFFFFF" cx="85.435" cy="109.874" r="7.166"/>
		<path fill="#FFFFFF" d="M61.069,92.541c13.635-14.612,36.983-13.604,48.824,2.788c2.803,3.881,9.312,0.144,6.475-3.785
			c-14.544-20.138-43.427-22.714-60.602-4.306C52.472,90.77,57.764,96.084,61.069,92.541L61.069,92.541z"/>
		<path fill="#FFFFFF" d="M43.374,76.273c23.299-25.393,63.088-24.105,85.049,2.298c3.097,3.723,8.373-1.613,5.305-5.303
			c-24.48-29.432-69.797-30.481-95.656-2.298C34.809,74.526,40.098,79.845,43.374,76.273L43.374,76.273z"/>
		<path fill="#FFFFFF" d="M23.354,58.315C39.105,41.024,60.86,31.091,84.267,30.719c24.426-0.389,47.514,10.76,63.494,28.987
			c3.193,3.644,8.477-1.683,5.303-5.303C135.947,34.88,111.57,23.614,85.618,23.218c-25.609-0.391-50.413,10.963-67.566,29.795
			C14.803,56.579,20.091,61.898,23.354,58.315L23.354,58.315z"/>
		<path fill="#FFFFFF" d="M6.316,42.832C26.157,20.976,53.751,8.227,83.283,7.516c31.022-0.746,60.609,12.893,81.272,35.79
			c3.248,3.598,8.535-1.723,5.305-5.303C148.05,13.835,117.202,0.019,84.64,0C52.886-0.018,22.27,14.113,1.014,37.529
			C-2.229,41.101,3.06,46.421,6.316,42.832L6.316,42.832z"/>
	</g>
</g>
<g id="Layer_1">
</g>
<g id="Layer_4">
</g>
</svg>
